<svg width="1200" height="360" viewBox="0 0 1200 360" xmlns="http://www.w3.org/2000/svg">
    <rect width="1200" height="360" fill="#F0EDE3"/>
    <text x="68" y="62" fill="#566B5A" font-family="ui-monospace,SFMono-Regular,Menlo,Consolas,monospace" font-size="12" letter-spacing="2.4">SMRI / LAB · ENGINEERING / PRODUCTS / RESEARCH</text>
    <line x1="68" y1="82" x2="1132" y2="82" stroke="#C4C9C0"/>
    <text x="68" y="164" fill="#182019" font-family="Georgia,'Times New Roman',serif" font-size="61" font-weight="700">Products, systems,</text>
    <text x="68" y="226" fill="#182019" font-family="Georgia,'Times New Roman',serif" font-size="61" font-weight="700">and field notes.</text>
    <text x="70" y="277" fill="#697169" font-family="-apple-system,BlinkMacSystemFont,'Segoe UI',sans-serif" font-size="17">Android · KMP · Flutter · AI · privacy-preserving systems</text>
    <text x="70" y="311" fill="#697169" font-family="-apple-system,BlinkMacSystemFont,'Segoe UI',sans-serif" font-size="14">I build, ship, and study software across product engineering and research.</text>
    <g transform="translate(930 44)" fill="none" stroke="#566B5A" stroke-linecap="round" stroke-linejoin="round">
    <path d="M72 246 C74 204 72 166 87 130 C100 98 122 78 141 42" stroke-width="2.2"/>
    <path d="M87 130 C55 116 40 94 30 66" stroke-width="1.6"/>
    <path d="M103 96 C137 91 159 69 175 44" stroke-width="1.6"/>
    <path d="M72 183 C48 173 33 157 24 139" stroke-width="1.5"/>
    <path d="M84 151 C112 143 128 128 143 110" stroke-width="1.5"/>
    <ellipse cx="24" cy="54" rx="11" ry="28" transform="rotate(-37 24 54)" opacity=".75"/>
    <ellipse cx="173" cy="35" rx="11" ry="29" transform="rotate(34 173 35)" opacity=".72"/>
    <ellipse cx="18" cy="128" rx="10" ry="25" transform="rotate(-49 18 128)" opacity=".62"/>
    <ellipse cx="147" cy="101" rx="10" ry="24" transform="rotate(43 147 101)" opacity=".66"/>
    <ellipse cx="55" cy="109" rx="9" ry="22" transform="rotate(-48 55 109)" opacity=".58"/>
    <circle cx="141" cy="42" r="2.6" fill="#566B5A" stroke="none"/>
  </g>
    <g fill="none" stroke="#D7DAD2" stroke-width="1">
    <path d="M0 318 C145 282 265 338 430 310 C595 281 718 330 880 306 C1010 287 1110 311 1200 296"/>
    <path d="M0 332 C150 300 281 352 438 323 C603 297 730 346 889 320 C1018 301 1118 326 1200 310"/>
    <path d="M0 346 C160 318 296 364 452 337 C615 312 742 358 900 333 C1030 315 1124 338 1200 324"/>
  </g>
  </svg>