<svg width="720" height="190" viewBox="0 0 720 190" xmlns="http://www.w3.org/2000/svg" shape-rendering="crispEdges">
  <rect width="720" height="190" fill="#090C16"/>
  <rect x="18" y="18" width="684" height="154" fill="#10162A" stroke="#F4F7FF" stroke-width="4"/>
  <text x="42" y="48" fill="#6EE7A8" font-family="ui-monospace,SFMono-Regular,Menlo,Consolas,monospace" font-size="16" font-weight="800">SECRET LAB // ACCESS GRANTED</text>
  <rect x="630" y="35" width="10" height="10" fill="#6EE7A8"><animate attributeName="opacity" values="1;.15;1" dur="1s" repeatCount="indefinite"/></rect>
  <rect x="42" y="64" width="304" height="82" fill="none" stroke="#2D385A" stroke-width="2"/>
  <rect x="374" y="64" width="304" height="82" fill="none" stroke="#2D385A" stroke-width="2"/>
  <g transform="translate(64 86)" fill="#9B6CFF">
    <rect x="8" y="0" width="28" height="6"/><rect x="0" y="8" width="44" height="6"/><rect x="8" y="16" width="6" height="10"/><rect x="30" y="16" width="6" height="10"/>
  </g>
  <text x="124" y="96" fill="#F4F7FF" font-family="ui-monospace,SFMono-Regular,Menlo,Consolas,monospace" font-size="17" font-weight="800">zk-UAV</text>
  <text x="124" y="119" fill="#8F9BB3" font-family="ui-monospace,SFMono-Regular,Menlo,Consolas,monospace" font-size="11">ZKP // NOVA // RUST</text>
  <g transform="translate(396 84)" fill="#4DD7FF">
    <rect x="0" y="4" width="36" height="28"/><rect x="6" y="10" width="24" height="16" fill="#10162A"/><rect x="14" y="14" width="8" height="8" fill="#4DD7FF"/>
  </g>
  <text x="456" y="96" fill="#F4F7FF" font-family="ui-monospace,SFMono-Regular,Menlo,Consolas,monospace" font-size="17" font-weight="800">RANGE / POSITION</text>
  <text x="456" y="119" fill="#8F9BB3" font-family="ui-monospace,SFMono-Regular,Menlo,Consolas,monospace" font-size="11">YOLO // MIDAS // CV</text>
  <rect x="44" y="156" width="632" height="2" fill="#2D385A"/>
  <rect x="44" y="156" width="90" height="2" fill="#4DD7FF">
    <animate attributeName="x" values="44;586;44" dur="4.5s" repeatCount="indefinite"/>
  </rect>
</svg>