<svg width="720" height="220" viewBox="0 0 720 220" xmlns="http://www.w3.org/2000/svg"><defs><linearGradient id="a" x1="30" y1="20" x2="690" y2="200"><stop stop-color="#8B5CF6"/><stop offset="1" stop-color="#3B82F6"/></linearGradient></defs><rect width="720" height="220" rx="26" fill="#0D1117"/><rect x="1" y="1" width="718" height="218" rx="25" fill="none" stroke="#30363D" stroke-width="2"/><circle cx="38" cy="36" r="5" fill="url(#a)"><animate attributeName="r" values="4;7;4" dur="2.6s" repeatCount="indefinite"/><animate attributeName="opacity" values=".5;1;.5" dur="2.6s" repeatCount="indefinite"/></circle><text x="54" y="42" fill="#8B949E" font-family="-apple-system,BlinkMacSystemFont,'Segoe UI',sans-serif" font-size="14" font-weight="700" letter-spacing="1.5">NOW BUILDING</text>
<g font-family="-apple-system,BlinkMacSystemFont,'Segoe UI',sans-serif"><g transform="translate(24 68)"><animateTransform attributeName="transform" type="translate" values="24 68;24 63;24 68" dur="5.4s" begin="0s" repeatCount="indefinite"/><rect width="210" height="118" rx="20" fill="#161B22" stroke="#30363D"/><circle cx="40" cy="42" r="24" fill="#312E81"/><path d="M34 25c-11 6-13 22-4 31 7 8 20 8 28 1-15 2-25-13-16-27-2-3-5-5-8-5z" fill="#C4B5FD"/><text x="76" y="40" fill="#F0F6FC" font-size="21" font-weight="800">Soine</text><text x="76" y="62" fill="#8B949E" font-size="13">sleep companion</text><text x="24" y="94" fill="#8B5CF6" font-family="ui-monospace,SFMono-Regular,Menlo,monospace" font-size="12">KMP · Compose</text></g>
<g transform="translate(255 68)"><animateTransform attributeName="transform" type="translate" values="255 68;255 62;255 68" dur="5.8s" begin=".7s" repeatCount="indefinite"/><rect width="210" height="118" rx="20" fill="#161B22" stroke="#30363D"/><circle cx="40" cy="42" r="24" fill="#172554"/><circle cx="32" cy="37" r="5" fill="#60A5FA"><animate attributeName="r" values="4;7;4" dur="2.3s" begin="0s" repeatCount="indefinite"/></circle><circle cx="50" cy="31" r="5" fill="#8B5CF6"><animate attributeName="r" values="4;7;4" dur="2.3s" begin=".35s" repeatCount="indefinite"/></circle><circle cx="50" cy="52" r="5" fill="#22D3EE"><animate attributeName="r" values="4;7;4" dur="2.3s" begin=".7s" repeatCount="indefinite"/></circle><path d="M36 36l10-4M35 41l11 9M50 36v11" stroke="#93C5FD" stroke-width="3"/><text x="76" y="40" fill="#F0F6FC" font-size="21" font-weight="800">SIGNAL</text><text x="76" y="62" fill="#8B949E" font-size="13">fact snapshots</text><text x="24" y="94" fill="#3B82F6" font-family="ui-monospace,SFMono-Regular,Menlo,monospace" font-size="12">Next · KMP · AI</text></g>
<g transform="translate(486 68)"><animateTransform attributeName="transform" type="translate" values="486 68;486 64;486 68" dur="5.1s" begin="1.3s" repeatCount="indefinite"/><rect width="210" height="118" rx="20" fill="#161B22" stroke="#30363D"/><circle cx="40" cy="42" r="24" fill="#052E16"/><path d="M40 59V37M40 43c-11 0-17-7-17-15 10 0 17 5 17 15zM42 36c3-10 10-14 18-12-1 10-8 15-18 12z" stroke="#4ADE80" fill="#22C55E" stroke-width="2"/><text x="76" y="40" fill="#F0F6FC" font-size="20" font-weight="800">Soil Garden</text><text x="76" y="62" fill="#8B949E" font-size="13">grow &amp; collect</text><text x="24" y="94" fill="#22C55E" font-family="ui-monospace,SFMono-Regular,Menlo,monospace" font-size="12">Flutter · Dart</text></g></g>
<rect x="24" y="202" width="672" height="3" rx="1.5" fill="url(#a)"><animate attributeName="width" values="180;672;520;672" dur="8s" repeatCount="indefinite"/></rect><circle id="building-motion-dot" r="4" fill="url(#a)"><animateMotion path="M24 203.5 H696" dur="5.2s" repeatCount="indefinite"/><animate attributeName="opacity" values="0;1;1;0" keyTimes="0;.08;.9;1" dur="5.2s" repeatCount="indefinite"/></circle></svg>